<svg width="64" height="43" viewBox="0 0 64 43" fill="none" xmlns="http://www.w3.org/2000/svg">
<path fill-rule="evenodd" clip-rule="evenodd" d="M38.2739 31.8412L31.5808 27.8031L27.388 25.2591C29.2728 21.7863 30.2729 17.8694 30.2729 13.912V11.2873V0.545898H15.9635V11.2469L7.15472 5.8762L0 18.8789L8.80877 24.2092L0 29.5799L7.15472 42.5826L15.9635 37.2523L18.1561 35.9197C21.4642 33.941 24.1953 31.074 26.0801 27.6012L28.5804 29.0953L36.9661 34.1833L38.2739 31.8412ZM55.2759 21.0595V15.4465H62.1614V10.7219H55.2759V5.31086H62.8538V0.545898H50.3522V25.986H63.2V21.0595H55.2759ZM46.4672 3.33219L42.4282 10.7219C45.3901 11.0854 47.0057 14.1543 47.0442 17.2637V18.2732C47.0442 23.5631 45.1978 26.3494 40.351 26.3494C36.0813 26.3494 33.8118 23.6439 33.6194 18.9193H38.2354C38.3893 20.6557 38.8893 21.544 40.2741 21.544C41.9666 21.544 42.3513 20.4941 42.3513 18.152V17.1021C42.3513 14.6793 41.505 13.8716 39.8894 13.8716H37.7353V10.7219L40.7357 5.31086H34.4272V0.545898H46.4672V3.33219Z" fill="#3D9985"/>
</svg>
